<svg width="163" height="55" viewBox="0 0 1836 616" fill="none" xmlns="http://www.w3.org/2000/svg">
<path d="M812.187 398.56V445.147H819.106V398.56H836.413V392.693H794.88V398.56H812.187Z" fill="white"/>
<path d="M856.72 392.68V445.147H863.627V422.733H880.507C882.2 422.733 883.56 422.987 884.573 423.507C885.587 424.013 886.413 424.707 887.053 425.56C887.68 426.413 888.147 427.427 888.427 428.573C888.72 429.72 888.96 430.933 889.16 432.213C889.4 433.48 889.547 434.787 889.6 436.107C889.64 437.427 889.693 438.667 889.747 439.813C889.787 440.96 889.893 442.013 890.067 442.933C890.24 443.867 890.56 444.6 891.053 445.147H898.76C898.04 444.267 897.493 443.24 897.12 442.093C896.76 440.947 896.48 439.733 896.293 438.453C896.093 437.187 895.973 435.88 895.92 434.56C895.88 433.24 895.8 431.947 895.707 430.667C895.56 429.4 895.36 428.173 895.093 427C894.827 425.813 894.413 424.76 893.853 423.8C893.293 422.84 892.547 422.027 891.6 421.333C890.653 420.653 889.427 420.16 887.92 419.867V419.72C891.08 418.84 893.36 417.2 894.8 414.8C896.227 412.4 896.947 409.613 896.947 406.427C896.947 402.16 895.547 398.813 892.76 396.36C889.973 393.907 886.107 392.68 881.16 392.68H856.72ZM878.027 416.853H863.627V398.56H880.787C884.04 398.56 886.387 399.4 887.853 401.067C889.307 402.72 890.027 404.88 890.027 407.52C890.027 409.44 889.707 410.987 889.053 412.187C888.4 413.387 887.52 414.347 886.427 415.053C885.333 415.76 884.067 416.24 882.613 416.493C881.16 416.733 879.627 416.853 878.027 416.853Z" fill="white"/>
<path d="M921.093 392.68V445.147H957.173V439.267H928V421.12H954.987V415.24H928V398.56H956.96V392.68H921.093Z" fill="white"/>
<path d="M980.013 392.68V445.147H986.56V403.04H986.707L1013.84 445.147H1021.41V392.68H1014.87V435.227H1014.72L987.36 392.68H980.013Z" fill="white"/>
<path d="M1058.95 398.56V445.147H1065.85V398.56H1083.17V392.693H1041.64V398.56H1058.95Z" fill="white"/>
<path d="M1107.47 418.92C1107.47 416.267 1107.81 413.667 1108.49 411.093C1109.17 408.52 1110.24 406.2 1111.69 404.147C1113.15 402.093 1115.01 400.44 1117.29 399.187C1119.57 397.933 1122.28 397.32 1125.44 397.32C1128.59 397.32 1131.31 397.933 1133.59 399.187C1135.87 400.44 1137.73 402.093 1139.19 404.147C1140.64 406.2 1141.71 408.52 1142.39 411.093C1143.07 413.667 1143.41 416.267 1143.41 418.92C1143.41 421.56 1143.07 424.16 1142.39 426.733C1141.71 429.307 1140.64 431.627 1139.19 433.68C1137.73 435.733 1135.87 437.387 1133.59 438.64C1131.31 439.893 1128.59 440.507 1125.44 440.507C1122.28 440.507 1119.57 439.893 1117.29 438.64C1115.01 437.387 1113.15 435.733 1111.69 433.68C1110.24 431.627 1109.17 429.307 1108.49 426.733C1107.81 424.16 1107.47 421.56 1107.47 418.92ZM1100.56 418.92C1100.56 422.493 1101.08 425.933 1102.12 429.24C1103.16 432.547 1104.73 435.467 1106.81 438.013C1108.91 440.56 1111.49 442.587 1114.6 444.08C1117.71 445.573 1121.32 446.32 1125.44 446.32C1129.56 446.32 1133.17 445.573 1136.28 444.08C1139.39 442.587 1141.97 440.56 1144.07 438.013C1146.15 435.467 1147.71 432.547 1148.75 429.24C1149.8 425.933 1150.32 422.493 1150.32 418.92C1150.32 415.333 1149.8 411.893 1148.75 408.587C1147.71 405.28 1146.15 402.36 1144.07 399.813C1141.97 397.267 1139.39 395.227 1136.28 393.72C1133.17 392.2 1129.56 391.44 1125.44 391.44C1121.32 391.44 1117.71 392.2 1114.6 393.72C1111.49 395.227 1108.91 397.267 1106.81 399.813C1104.73 402.36 1103.16 405.28 1102.12 408.587C1101.08 411.893 1100.56 415.333 1100.56 418.92Z" fill="white"/>
<path d="M1208.08 392.68V445.147H1214.99V422.733H1231.87C1233.56 422.733 1234.92 422.987 1235.93 423.507C1236.96 424.013 1237.79 424.707 1238.41 425.56C1239.04 426.413 1239.51 427.427 1239.8 428.573C1240.08 429.72 1240.33 430.933 1240.52 432.213C1240.76 433.48 1240.91 434.787 1240.96 436.107C1241.01 437.427 1241.05 438.667 1241.11 439.813C1241.15 440.96 1241.27 442.013 1241.43 442.933C1241.6 443.867 1241.93 444.6 1242.41 445.147H1250.12C1249.4 444.267 1248.85 443.24 1248.49 442.093C1248.12 440.947 1247.84 439.733 1247.65 438.453C1247.45 437.187 1247.33 435.88 1247.29 434.56C1247.24 433.24 1247.17 431.947 1247.07 430.667C1246.92 429.4 1246.72 428.173 1246.45 427C1246.19 425.813 1245.77 424.76 1245.21 423.8C1244.65 422.84 1243.91 422.027 1242.96 421.333C1242.01 420.653 1240.79 420.16 1239.28 419.867V419.72C1242.44 418.84 1244.73 417.2 1246.16 414.8C1247.59 412.4 1248.31 409.613 1248.31 406.427C1248.31 402.16 1246.91 398.813 1244.12 396.36C1241.33 393.907 1237.47 392.68 1232.52 392.68H1208.08ZM1229.39 416.853H1214.99V398.56H1232.16C1235.4 398.56 1237.76 399.4 1239.21 401.067C1240.67 402.72 1241.4 404.88 1241.4 407.52C1241.4 409.44 1241.07 410.987 1240.41 412.187C1239.76 413.387 1238.88 414.347 1237.8 415.053C1236.71 415.76 1235.43 416.24 1233.97 416.493C1232.52 416.733 1230.99 416.853 1229.39 416.853Z" fill="white"/>
<path d="M1281.4 423.467L1290.21 399H1290.35L1299.01 423.467H1281.4ZM1286.57 392.68L1266.35 445.147H1273.4L1279.23 429.347H1301.19L1306.87 445.147H1314.51L1294.21 392.68H1286.57Z" fill="white"/>
<path d="M1370.67 408.48H1377.57C1377.19 405.693 1376.36 403.227 1375.11 401.093C1373.84 398.973 1372.27 397.187 1370.37 395.773C1368.48 394.347 1366.32 393.28 1363.91 392.533C1361.48 391.8 1358.91 391.44 1356.19 391.44C1352.21 391.44 1348.68 392.16 1345.6 393.6C1342.52 395.053 1339.96 397.027 1337.89 399.52C1335.83 402.013 1334.27 404.947 1333.2 408.293C1332.13 411.653 1331.6 415.24 1331.6 419.067C1331.6 422.88 1332.09 426.453 1333.09 429.787C1334.08 433.12 1335.57 436.013 1337.56 438.453C1339.56 440.907 1342.05 442.827 1345.05 444.227C1348.07 445.613 1351.59 446.32 1355.61 446.32C1362.25 446.32 1367.49 444.48 1371.32 440.813C1375.15 437.133 1377.41 431.987 1378.08 425.373H1371.17C1371.03 427.533 1370.59 429.547 1369.87 431.4C1369.13 433.267 1368.13 434.867 1366.85 436.213C1365.56 437.56 1364.04 438.613 1362.27 439.373C1360.49 440.133 1358.47 440.507 1356.19 440.507C1353.08 440.507 1350.41 439.92 1348.19 438.747C1345.96 437.573 1344.12 436 1342.69 434.013C1341.27 432.027 1340.21 429.707 1339.53 427.027C1338.85 424.36 1338.51 421.533 1338.51 418.547C1338.51 415.8 1338.85 413.16 1339.53 410.613C1340.21 408.067 1341.27 405.8 1342.69 403.813C1344.12 401.827 1345.95 400.253 1348.15 399.08C1350.36 397.907 1353.01 397.32 1356.12 397.32C1359.75 397.32 1362.89 398.24 1365.53 400.107C1368.19 401.973 1369.89 404.76 1370.67 408.48Z" fill="white"/>
<path d="M1401.51 392.68V445.147H1408.43V392.68H1401.51Z" fill="white"/>
<path d="M1434.53 392.68V445.147H1441.08V403.04H1441.23L1468.36 445.147H1475.93V392.68H1469.39V435.227H1469.24L1441.88 392.68H1434.53Z" fill="white"/>
<path d="M1540.53 438.6L1542.35 445.147H1546.71V417.52H1523.95V423.4H1540.53C1540.63 425.8 1540.31 428.04 1539.59 430.12C1538.85 432.2 1537.77 434.013 1536.35 435.56C1534.92 437.093 1533.16 438.307 1531.07 439.187C1528.99 440.08 1526.59 440.52 1523.87 440.52C1520.96 440.52 1518.4 439.933 1516.2 438.787C1513.99 437.64 1512.13 436.093 1510.63 434.16C1509.12 432.227 1507.99 430 1507.21 427.48C1506.44 424.947 1506.05 422.32 1506.05 419.573C1506.05 416.787 1506.39 414.053 1507.07 411.387C1507.75 408.72 1508.8 406.333 1510.23 404.253C1511.65 402.173 1513.51 400.493 1515.76 399.227C1518.01 397.947 1520.72 397.32 1523.87 397.32C1525.81 397.32 1527.64 397.547 1529.36 398.013C1531.08 398.48 1532.63 399.173 1533.99 400.107C1535.33 401.04 1536.48 402.227 1537.4 403.667C1538.32 405.12 1538.95 406.84 1539.29 408.853H1546.2C1545.72 405.76 1544.81 403.133 1543.48 400.947C1542.15 398.773 1540.49 396.973 1538.53 395.547C1536.56 394.133 1534.33 393.093 1531.84 392.427C1529.33 391.773 1526.68 391.44 1523.87 391.44C1519.75 391.44 1516.15 392.213 1513.07 393.747C1509.99 395.293 1507.41 397.36 1505.36 399.96C1503.29 402.56 1501.75 405.587 1500.71 409.027C1499.65 412.48 1499.13 416.12 1499.13 419.947C1499.13 423.373 1499.69 426.68 1500.81 429.867C1501.92 433.04 1503.55 435.867 1505.68 438.307C1507.81 440.76 1510.41 442.707 1513.47 444.147C1516.52 445.6 1519.99 446.32 1523.87 446.32C1526.92 446.32 1529.96 445.72 1532.96 444.52C1535.97 443.32 1538.49 441.347 1540.53 438.6Z" fill="white"/>
<path d="M1618 398.56V445.147H1624.91V398.56H1642.23V392.693H1600.69V398.56H1618Z" fill="white"/>
<path d="M1662.52 392.68V445.147H1698.6V439.267H1669.44V421.12H1696.43V415.24H1669.44V398.56H1698.39V392.68H1662.52Z" fill="white"/>
<path d="M1730.47 423.467L1739.27 399H1739.41L1748.08 423.467H1730.47ZM1735.64 392.68L1715.41 445.147H1722.47L1728.28 429.347H1750.25L1755.93 445.147H1763.57L1743.27 392.68H1735.64Z" fill="white"/>
<path d="M1783.36 392.68V445.147H1789.91V401.507H1790.05L1806.27 445.147H1812.16L1828.39 401.507H1828.53V445.147H1835.08V392.68H1825.61L1809.19 436.76L1792.81 392.68H1783.36Z" fill="white"/>
<path d="M952.48 236.293H882.88L890.76 212.413L875 202.467H940.013C942.413 202.467 944.106 202.907 945.093 203.8C946.08 204.68 946.68 205.68 946.907 206.773C947.12 208.107 947.013 209.547 946.573 211.093L976.12 210.427C979.186 209.987 981.493 209.373 983.027 208.6C984.56 207.827 985.76 206.893 986.626 205.787C987.506 204.68 988.16 203.347 988.6 201.8L999.106 169.307H812.613L850.04 193.187L813.266 305.267C811.733 305.267 810.2 305.707 808.667 306.587C807.36 307.253 806.04 308.307 804.733 309.747C803.413 311.173 802.32 313.227 801.44 315.88L794.88 336.44H945.266L955.773 303.933C956.426 302.173 956.64 300.627 956.426 299.293C955.986 298.187 955.173 297.147 953.96 296.147C952.76 295.147 950.52 294.653 947.227 294.653H919.653C919.213 296.427 918.387 297.853 917.187 298.96C915.987 300.067 914.84 300.84 913.747 301.28C912.427 302.173 910.893 302.613 909.146 302.613H861.2L872.373 269.453H893.387C895.787 269.453 897.493 269.893 898.466 270.773C899.453 271.667 900.053 272.653 900.28 273.76C900.493 275.093 900.386 276.52 899.946 278.08L929.507 277.413C932.56 276.973 934.867 276.36 936.4 275.587C937.933 274.813 939.133 273.88 940.013 272.773C940.88 271.667 941.546 270.333 941.973 268.787L952.48 236.293Z" fill="white"/>
<path d="M1000.75 269.453H1095.32L1106.15 236.293H1011.25L1000.75 269.453Z" fill="white"/>
<path d="M1219.11 295.973V305.933C1216.48 306.373 1214.4 307.093 1212.87 308.08C1211.33 309.08 1210.24 310.133 1209.57 311.24C1208.71 312.56 1208.16 313.88 1207.93 315.213L1200.72 336.44H1265.72L1272.95 313.88C1273.61 312.347 1273.83 311.013 1273.61 309.907C1273.39 308.8 1272.84 307.813 1271.96 306.92C1271.09 306.04 1269.45 305.48 1267.04 305.267L1266.39 183.893C1266.39 181.467 1265.95 179.147 1265.07 176.933C1264.2 175.16 1262.93 173.56 1261.29 172.12C1259.65 170.693 1257.19 169.973 1253.91 169.973H1155.4L1192.84 193.187L1120.6 305.267C1119.07 305.267 1117.53 305.6 1116 306.253C1114.69 306.707 1113.37 307.48 1112.05 308.587C1110.75 309.68 1109.65 311.453 1108.77 313.88L1101.56 336.44H1167.23L1173.79 315.213C1174.45 313.667 1174.67 312.227 1174.45 310.907C1174.23 309.8 1173.68 308.747 1172.8 307.747C1171.93 306.76 1170.29 306.147 1167.88 305.933L1174.45 295.973H1219.11ZM1219.76 258.173H1198.08L1219.76 224.36V258.173Z" fill="white"/>
<path d="M1457.81 245.573H1371.12L1403.96 265.48L1392.13 303.28H1353.4C1350.99 303.28 1349.35 302.947 1348.47 302.28C1347.59 301.613 1347.04 300.733 1346.83 299.627C1346.61 298.747 1346.83 297.533 1347.48 295.987L1374.41 212.413L1357.33 203.133H1424.32C1425.85 203.133 1427.05 203.467 1427.93 204.12C1428.8 204.573 1429.47 205.347 1429.89 206.453C1430.33 207.547 1430.23 209.093 1429.57 211.093H1457.15C1459.35 211.093 1461.41 210.76 1463.39 210.093C1465.15 209.653 1466.79 208.88 1468.32 207.773C1469.85 206.667 1470.95 205.12 1471.6 203.133L1482.76 169.307H1382.29C1371.56 169.307 1362.8 171.08 1356.03 174.613C1349.24 178.147 1343.87 182.133 1339.93 186.547C1335.33 191.64 1331.95 197.387 1329.75 203.8L1298.23 301.947C1296.48 308.36 1296.27 314.107 1297.57 319.187C1298.23 321.4 1299.21 323.507 1300.53 325.493C1301.84 327.48 1303.65 329.307 1305.95 330.96C1308.24 332.627 1311.2 333.947 1314.81 334.947C1318.43 335.933 1322.75 336.44 1327.79 336.44H1428.25L1457.81 245.573Z" fill="white"/>
<path d="M1550.73 209.093L1534.32 199.813H1553.36C1555.76 199.813 1557.73 199.32 1559.27 198.32C1560.8 197.333 1562.12 196.28 1563.21 195.173C1564.31 193.853 1565.17 192.293 1565.84 190.533L1572.4 169.307H1471.27L1509.36 192.52L1473.24 305.267C1471.49 305.267 1469.85 305.707 1468.32 306.587C1467 307.253 1465.64 308.253 1464.21 309.573C1462.79 310.907 1461.64 312.787 1460.76 315.213L1454.2 336.44H1603.92L1614.76 302.613C1615.2 301.28 1615.2 300.067 1614.76 298.96C1614.32 297.853 1613.56 296.92 1612.45 296.147C1611.36 295.373 1609.51 294.88 1606.88 294.653H1577.65C1577 296.2 1576.23 297.533 1575.36 298.627C1574.48 299.733 1573.28 300.733 1571.75 301.613C1570.21 302.507 1568.24 303.053 1565.84 303.28H1520.52L1550.73 209.093Z" fill="white"/>
<path d="M1788.45 236.293H1718.84L1726.72 212.413L1710.96 202.467H1775.97C1778.39 202.467 1780.08 202.907 1781.07 203.8C1782.05 204.68 1782.65 205.68 1782.87 206.773C1783.09 208.107 1782.99 209.547 1782.55 211.093L1812.09 210.427C1815.16 209.987 1817.45 209.373 1818.99 208.6C1820.52 207.827 1821.72 206.893 1822.6 205.787C1823.48 204.68 1824.13 203.347 1824.57 201.8L1835.08 169.307H1648.57L1686.01 193.187L1649.24 305.267C1647.71 305.267 1646.17 305.707 1644.64 306.587C1643.32 307.253 1642.01 308.307 1640.69 309.747C1639.39 311.173 1638.29 313.227 1637.41 315.88L1630.85 336.44H1781.23L1791.73 303.933C1792.39 302.173 1792.61 300.627 1792.39 299.293C1791.96 298.187 1791.13 297.147 1789.93 296.147C1788.72 295.147 1786.48 294.653 1783.2 294.653H1755.61C1755.19 296.427 1754.36 297.853 1753.16 298.96C1751.95 300.067 1750.8 300.84 1749.71 301.28C1748.4 302.173 1746.87 302.613 1745.11 302.613H1697.17L1708.33 269.453H1729.35C1731.76 269.453 1733.45 269.893 1734.44 270.773C1735.43 271.667 1736.03 272.653 1736.24 273.76C1736.47 275.093 1736.36 276.52 1735.92 278.08L1765.47 277.413C1768.53 276.973 1770.83 276.36 1772.36 275.587C1773.89 274.813 1775.11 273.88 1775.97 272.773C1776.85 271.667 1777.51 270.333 1777.95 268.787L1788.45 236.293Z" fill="white"/>
<path d="M542.307 362.867C540.933 365.973 539.4 368.987 537.693 371.907C538.76 369.653 540.253 366.707 542.307 362.867Z" fill="white"/>
<path d="M566.84 495.12C529.253 521.68 480.32 541.933 417.987 543.227C438.32 549.253 459.56 550.32 480.24 548.373C549.733 541.84 612.96 501.187 614.987 499.88C443.36 648.787 270.063 535.347 254.889 524.84H254.872C259.095 530.387 263.912 535.773 269.377 540.947C269.387 540.96 269.396 540.973 269.413 540.973C298.159 568.2 342.7 592.253 409.987 608.653C257.075 594.587 188.049 514.547 157.776 437.28C156.853 434.907 155.957 432.547 155.107 430.187V430.173L155.007 429.907L154.613 428.8V428.787H154.604V428.773L154.284 427.88C139.349 385.773 135.575 353.027 135.575 353.027C132.011 366.8 129.707 380.173 128.372 392.987C120.284 470.52 147.713 527.653 148.069 528.427C146.516 526.72 24.8786 394.933 76.3746 248.8C121.847 119.787 228.823 108 228.823 108C188.277 140.92 195.315 205.467 195.315 205.467C201.877 199.173 208.513 193.6 215.157 188.32C285.765 132.24 346.475 126.387 346.475 126.387C285.235 121.12 241.327 146.16 232.497 152.507C231.921 152.92 231.519 153.173 231.437 153.24C243.475 116.613 297.209 82.3734 297.209 82.3734C153.627 27.0401 26.9346 148.147 25.3266 149.693C72.6546 60.6667 189.684 17.5467 295.344 8.62671C346.145 4.33337 394.323 7.94672 430.853 18.1734C467.92 28.5334 499.947 41.1067 526.36 54.44C528.013 55.2667 529.6 56.12 531.2 56.9467C543.613 63.9867 579.56 87.9733 607.053 139.76L607.88 141.387C607.88 141.387 607.88 141.4 607.893 141.427C608.187 142.24 612.613 154.307 617.76 169.12C622.107 181.6 626.96 196.013 630.293 207.293C630.307 207.36 630.333 207.413 630.333 207.467C632.52 208.627 634.56 209.827 636.493 211.053C682.4 240.267 661.587 289.107 612.733 346.787C612.733 346.787 612.667 325.88 610.84 306.373C609.653 293.787 601.973 282.747 590.627 277.187C564.933 264.613 515.28 241.947 474.56 233.347C470.307 232.453 466.147 231.707 462.12 231.133C449.28 230.373 440.68 230.72 435.04 231.36C432.613 231.813 430.213 232.347 427.827 232.947C425.427 233.52 422.093 234.813 416.027 237.52C415.44 237.773 414.88 238.08 414.307 238.36C411.493 239.773 408.747 241.333 406.08 243.013C403.44 244.667 400.88 246.467 398.408 248.373C389.844 255.027 382.395 263.04 376.427 272.133C366.427 287.373 360.54 305.573 360.395 325.133C360.385 325.387 360.385 325.654 360.385 325.907C360.385 326.187 360.385 326.467 360.395 326.747C360.385 327.014 360.395 327.28 360.413 327.547C360.413 327.6 360.413 327.64 360.395 327.693C360.395 327.8 360.395 327.907 360.413 327.987C360.421 328.693 360.431 329.387 360.476 330.08C360.504 330.68 360.523 331.253 360.568 331.84C360.604 332.64 360.669 333.427 360.733 334.213C360.824 335.373 360.943 336.52 361.08 337.667C361.08 337.667 361.08 337.693 361.099 337.76C361.172 338.333 361.647 341.573 362.396 345.72C362.561 346.56 362.752 347.414 362.945 348.24C363.145 349.067 363.347 349.907 363.567 350.747C363.584 350.787 363.593 350.84 363.603 350.893C363.767 351.573 363.968 352.24 364.16 352.92C364.672 354.72 365.239 356.507 365.843 358.253C366.08 358.92 366.327 359.573 366.573 360.227C367.067 361.587 367.616 362.96 368.191 364.28C368.328 364.64 368.484 365 368.648 365.36C368.812 365.733 368.977 366.093 369.141 366.453C369.333 366.893 369.535 367.333 369.753 367.773C370.457 369.293 371.216 370.773 372.012 372.253C372.332 372.84 372.652 373.413 372.98 374.013C373.1 374.2 373.2 374.4 373.309 374.6C373.639 375.173 373.976 375.747 374.315 376.307C374.891 377.28 375.485 378.213 376.079 379.147C376.536 379.84 377.003 380.533 377.459 381.213C378.008 382.013 378.573 382.8 379.151 383.587C379.515 384.08 379.891 384.587 380.256 385.08C380.64 385.587 381.005 386.067 381.399 386.56C381.436 386.6 381.472 386.64 381.491 386.693C382.44 387.907 383.445 389.08 384.46 390.24C384.744 390.587 385.017 390.907 385.337 391.24C385.813 391.787 386.307 392.32 386.809 392.853C386.864 392.907 386.928 392.987 387.001 393.053C387.459 393.56 387.943 394.053 388.419 394.533C388.784 394.92 389.159 395.293 389.533 395.653C389.699 395.827 389.863 395.987 390.036 396.147C390.529 396.64 391.032 397.107 391.535 397.574C392.239 398.24 392.979 398.907 393.701 399.547C394.323 400.093 394.953 400.627 395.584 401.147C396.16 401.64 396.717 402.093 397.312 402.56C397.741 402.92 398.189 403.267 398.628 403.587C399.085 403.96 399.547 404.307 400.027 404.653C400.16 404.76 400.32 404.867 400.48 404.987C401.173 405.507 401.867 406 402.587 406.493C402.653 406.547 402.747 406.613 402.827 406.653C403.64 407.213 404.453 407.773 405.267 408.293C420.587 418.2 438.84 423.947 458.426 423.947C459.413 423.947 460.413 423.933 461.387 423.893C461.653 423.893 461.933 423.88 462.2 423.867C463 423.84 463.773 423.8 464.56 423.76C465.587 423.693 466.586 423.613 467.6 423.52C468.48 423.44 469.333 423.347 470.2 423.24C470.573 423.2 470.92 423.16 471.307 423.107C471.973 423.013 472.64 422.92 473.28 422.827C473.893 422.733 474.507 422.627 475.08 422.533C475.707 422.44 476.307 422.32 476.907 422.213C477.493 422.093 478.107 421.973 478.693 421.84C479.173 421.747 479.667 421.627 480.16 421.52C481.027 421.333 481.906 421.12 482.773 420.893C483.44 420.72 484.107 420.547 484.773 420.347C485.68 420.12 486.573 419.84 487.44 419.574C487.866 419.454 488.28 419.32 488.667 419.187C490.08 418.733 491.48 418.254 492.84 417.747C493.293 417.56 493.747 417.4 494.187 417.213C495.853 416.56 497.507 415.867 499.133 415.12C499.813 414.813 500.48 414.507 501.147 414.16C504.013 412.787 506.787 411.267 509.493 409.6C509.987 409.307 510.493 409 510.973 408.68C512.013 408.027 513.04 407.36 514.027 406.653C514.653 406.227 515.28 405.8 515.893 405.347C516.373 405.013 516.84 404.653 517.307 404.28C517.786 403.933 518.253 403.587 518.707 403.213C519.467 402.64 520.213 402.04 520.946 401.414C521.56 400.92 522.147 400.413 522.733 399.907C522.947 399.72 523.147 399.56 523.333 399.373C523.96 398.84 524.56 398.293 525.16 397.72C525.867 397.08 526.547 396.413 527.227 395.733C527.867 395.107 528.507 394.453 529.147 393.827C529.16 393.773 529.2 393.733 529.24 393.707C529.813 393.107 530.36 392.493 530.92 391.893C531.12 391.68 531.307 391.454 531.507 391.24C532.04 390.654 532.573 390.053 533.093 389.427C534.32 387.973 535.52 386.48 536.667 384.96C537.253 384.2 537.813 383.44 538.373 382.64C542.36 377.027 545.773 370.973 548.52 364.574C545.973 372.574 543.173 379.893 540.187 386.56C500.653 474.787 406.987 442.213 404.16 441.2C549.987 522.013 671.613 362.707 672.8 361.147C672.48 362.067 642.787 441.467 566.84 495.12ZM667.733 357.267C666.933 358.307 647.96 383.08 616.067 408.027C587.107 430.68 541.533 457.667 488.84 457.667C477.613 457.667 466.413 456.44 455.32 454.013C486.12 451.987 524.053 438.28 546.053 389.173C549.16 382.24 552.053 374.613 554.64 366.52C561.786 347.12 555.613 321.973 555.613 321.973C555.613 321.973 550.533 346.96 542.72 362.067C542.587 362.32 542.453 362.573 542.333 362.813C542.32 362.84 542.32 362.853 542.307 362.867C540.933 365.973 539.4 368.987 537.693 371.907C537.693 371.934 537.68 371.947 537.68 371.96C536.28 374.347 534.773 376.68 533.173 378.933C532.693 379.627 532.186 380.32 531.6 381.093C530.48 382.573 529.347 383.973 528.24 385.293C527.773 385.84 527.32 386.347 526.827 386.907C526.707 387.027 526.587 387.16 526.466 387.293L526.373 387.4L526.307 387.48L526.2 387.587C525.733 388.107 525.253 388.627 524.773 389.147C524.613 389.28 524.48 389.427 524.347 389.587L523.987 389.96L522.8 391.147L522.76 391.173L522.72 391.213C522.227 391.693 521.573 392.347 520.907 392.947L520.72 393.12C520.227 393.6 519.72 394.053 519.2 394.493L519.013 394.667L518.853 394.813C518.813 394.853 518.773 394.893 518.733 394.92L518.56 395.08L518.266 395.333C517.8 395.72 517.373 396.093 516.96 396.44L516.827 396.547C516.173 397.093 515.52 397.627 514.867 398.12L514.8 398.173L514.733 398.213C514.347 398.533 513.96 398.827 513.56 399.12L513.48 399.187L513.387 399.253C512.987 399.56 512.587 399.867 512.2 400.133C511.493 400.64 510.973 401 510.493 401.333L510.413 401.387L510.333 401.44C509.4 402.107 508.413 402.747 507.56 403.293L507.52 403.32L507.48 403.347C507.093 403.587 506.707 403.84 506.293 404.08L506.213 404.107L506.147 404.16C503.68 405.68 501.067 407.107 498.387 408.414L498.333 408.44L498.28 408.467C497.76 408.72 497.2 408.987 496.573 409.253L496.533 409.28L496.48 409.307C495.08 409.947 493.56 410.587 491.853 411.267L491.8 411.293L491.747 411.32C491.52 411.413 491.28 411.493 491.053 411.587L490.613 411.747C489.427 412.187 488.16 412.64 486.707 413.107C486.36 413.227 485.973 413.347 485.6 413.453L485.547 413.467C484.733 413.72 483.973 413.96 483.227 414.133L483.08 414.173L482.947 414.227C482.4 414.387 481.8 414.547 481.187 414.707C480.413 414.907 479.613 415.093 478.8 415.267L478.52 415.333C478.147 415.413 477.787 415.507 477.413 415.587H477.387H477.373C476.893 415.693 476.413 415.787 475.92 415.88L475.707 415.933L475.4 415.987C475 416.053 474.587 416.147 474.173 416.2L474.093 416.213L474.027 416.227C473.48 416.32 472.933 416.4 472.36 416.493C471.707 416.6 471.093 416.68 470.453 416.76C470.227 416.8 470.027 416.827 469.827 416.84L469.44 416.893C468.626 417 467.867 417.08 467.08 417.133L467.067 417.147H467.04C465.947 417.24 465.04 417.32 464.187 417.36C463.44 417.413 462.747 417.453 462.067 417.467H462L461.667 417.48C461.587 417.48 461.493 417.493 461.4 417.493H461.266L461.107 417.507C460.213 417.533 459.253 417.547 458.44 417.547C440.746 417.547 423.573 412.48 408.76 402.92L408.747 402.893L408.72 402.88C408.053 402.453 407.333 401.974 406.493 401.414L406.373 401.32L406.347 401.293L406.32 401.28L406.2 401.2C405.573 400.76 404.947 400.32 404.333 399.867L404.253 399.813L404.187 399.747C404.12 399.707 404.067 399.667 404.013 399.627L403.907 399.547L403.813 399.493C403.467 399.227 403.04 398.907 402.653 398.587L402.573 398.533L402.48 398.48C402.08 398.16 401.72 397.893 401.413 397.627L401.347 397.574L401.28 397.52C400.787 397.133 400.293 396.733 399.72 396.253L399.707 396.227L399.68 396.213C399.103 395.747 398.528 395.24 397.96 394.747L397.677 394.507C397.064 393.96 396.497 393.44 395.959 392.933L395.931 392.907L395.904 392.893C395.447 392.453 394.989 392.027 394.541 391.587L394.496 391.547L394.46 391.507C394.332 391.387 394.213 391.267 394.095 391.147L394.067 391.12L394.021 391.08C393.692 390.76 393.381 390.453 393.125 390.173L393.007 390.053C392.549 389.587 392.129 389.16 391.755 388.747L391.507 388.48L391.452 388.427C391.004 387.96 390.575 387.48 390.155 387.013L390.081 386.933L390.008 386.84C389.808 386.64 389.615 386.413 389.387 386.133L389.341 386.093L389.296 386.027C388.564 385.187 387.613 384.093 386.736 382.973C386.608 382.8 386.472 382.627 386.325 382.453C386.069 382.12 385.813 381.8 385.567 381.467L385.392 381.24L385.201 380.987C384.917 380.6 384.624 380.213 384.341 379.813C383.885 379.2 383.309 378.4 382.769 377.613C382.349 376.973 381.901 376.32 381.463 375.653C380.785 374.613 380.284 373.8 379.836 373.04C379.524 372.52 379.215 372 378.921 371.48L378.895 371.44C378.784 371.227 378.665 371.013 378.537 370.8C378.236 370.267 377.952 369.747 377.669 369.213C376.865 367.747 376.188 366.387 375.576 365.08L375.54 364.987L375.495 364.907C375.348 364.613 375.192 364.28 375.028 363.893L375.009 363.853L375 363.827L374.827 363.453C374.727 363.227 374.625 363.013 374.525 362.773L374.507 362.733L374.48 362.68C374.369 362.44 374.269 362.2 374.177 361.973L374.132 361.853L374.077 361.733C373.528 360.467 373.035 359.227 372.607 358.053L372.587 357.987C372.349 357.36 372.121 356.733 371.893 356.12C371.327 354.467 370.805 352.813 370.339 351.173L370.201 350.707C370.083 350.28 369.964 349.867 369.873 349.493C369.836 349.347 369.8 349.173 369.736 348.973C369.563 348.307 369.397 347.64 369.241 346.973L369.187 346.76C369.013 346 368.84 345.253 368.703 344.533C367.953 340.36 367.505 337.267 367.469 336.947L367.405 336.467L367.396 336.453C367.287 335.493 367.204 334.587 367.131 333.707C367.076 332.973 367.012 332.24 366.984 331.547L366.975 331.453L366.967 331.333C366.939 330.973 366.92 330.6 366.911 330.227L366.893 329.8L366.884 329.733V329.667C366.848 329.12 366.839 328.52 366.829 327.907V327.32L366.82 327.107C366.811 327.053 366.811 327.013 366.811 326.947L366.82 326.733L366.811 326.533C366.801 326.32 366.801 326.12 366.801 325.907C366.801 325.72 366.801 325.547 366.811 325.36V325.173C366.948 307.507 372.131 290.387 381.8 275.653C387.348 267.187 394.268 259.707 402.36 253.427C404.613 251.68 407.013 249.987 409.507 248.413C412.04 246.827 414.627 245.36 417.187 244.08L417.653 243.853C418 243.68 418.347 243.507 418.693 243.347C424.213 240.88 427.413 239.627 429.333 239.173L429.373 239.16L429.4 239.147C431.613 238.587 433.84 238.093 436.013 237.693C439.547 237.293 443.76 237.093 448.533 237.093C452.48 237.093 456.84 237.227 461.507 237.507C465.16 238.027 469.12 238.733 473.266 239.613C513.16 248.04 562.173 270.36 587.84 282.933C597.147 287.493 603.52 296.707 604.48 306.973C606.267 325.973 606.36 346.6 606.36 346.8L606.413 364.173L617.64 350.92C656 305.627 671.96 271.933 667.853 244.893C665.467 229.12 656.066 215.92 639.946 205.653C638.586 204.787 637.173 203.947 635.747 203.147C632.907 193.747 628.907 181.6 623.827 167.013C619.36 154.16 615.507 143.56 614.293 140.267V139.84L613.6 138.48L612.773 136.84L612.747 136.813L612.72 136.76C600.573 113.867 585.493 93.7467 567.907 76.9467C553.24 62.92 540.6 54.9068 534.387 51.3734L534.253 51.3067L534.147 51.2533C533.467 50.9067 532.813 50.5601 532.147 50.2134C531.2 49.7068 530.24 49.2134 529.253 48.7201C500.72 34.3201 468.2 21.9601 432.6 12.0134C405.573 4.45343 372.487 0.453369 336.895 0.453369C323.093 0.453369 308.945 1.05334 294.823 2.2533C236.967 7.1333 181.961 21.3467 135.731 43.3467C110.047 55.5601 87.4159 70.0801 68.4586 86.5067C47.8292 104.373 31.4225 124.627 19.6959 146.693L0.922607 182.027L29.7786 154.307C30.6466 153.48 51.4305 133.68 85.4319 113.853C116.399 95.8134 164.823 74.2933 219.673 74.2933C241.335 74.2933 262.687 77.6401 283.307 84.2401C266.525 96.5468 234.719 122.827 225.376 151.24L218.841 171.147L235.267 158.387L235.321 158.347C235.54 158.2 235.851 157.987 236.235 157.707C236.509 157.507 256.233 143.6 289.559 136.347C268.207 145.36 240.549 160 211.2 183.32C207.627 186.147 204.355 188.84 201.301 191.453C201.412 185.493 201.896 177.973 203.257 169.787C206.119 152.507 213.585 128.64 232.881 112.96L249.753 99.2667L228.145 101.64C226.995 101.76 199.656 104.96 166.432 124.507C146.983 135.947 129.524 150.653 114.535 168.213C95.8519 190.107 80.9999 216.507 70.3599 246.68C58.3226 280.827 54.5839 317.027 59.2453 354.24C62.9746 383.973 72.0413 414.427 86.2186 444.773C109.937 495.547 139.999 529.067 143.344 532.72L170.865 562.747L153.911 525.76L153.892 525.733L153.855 525.653C153.124 524.08 146.535 509.72 141.059 487.013C135.949 465.813 130.712 432.413 134.752 393.653C134.991 391.427 135.245 389.2 135.539 386.987C138.427 399.08 142.521 413.773 148.225 429.88C148.225 429.88 149.12 432.493 150.144 435.173C150.665 436.56 151.223 438.027 151.835 439.6C169.768 485.373 197.399 523.08 233.968 551.707C279.295 587.173 338.321 608.48 409.413 615.013C435.947 616.72 464.733 603.213 465.573 602.813C464.693 602.933 436.12 606.56 411.52 602.44C364.508 590.987 326.111 575.04 296.907 554.907C299.851 556.2 302.912 557.507 306.084 558.787C344.783 574.493 384.196 582.467 423.227 582.467C493.8 582.467 559.747 556.307 619.2 504.72C648.853 480.333 652.96 459.307 652.96 459.307C652.96 459.307 637.747 477.36 611.533 494.493C611.48 494.533 611.386 494.6 611.253 494.68C611.16 494.747 611.067 494.813 610.973 494.867C604.133 499.187 544.36 535.92 479.667 542C479.147 542.04 478.653 542.093 478.147 542.133C511.373 534.28 542.307 520.307 570.547 500.347C610.68 472 637.866 436.547 653.6 411.787C671.253 384.027 678.787 363.493 678.853 363.293L692.693 324.427L667.733 357.267Z" fill="white"/>
<path d="M542.72 362.067C542.587 362.32 542.453 362.573 542.333 362.813C542.453 362.56 542.56 362.307 542.667 362.053L542.72 362.067Z" fill="white"/>
<path d="M628.24 301.027C625.28 284.947 614.72 270.853 599.88 263.587C577.64 252.707 540.84 235.907 505.627 225.347C502.787 224.533 499.933 223.72 497.08 222.933C509.4 220.253 528.293 216.573 549.72 213.987C571.64 211.333 587.093 210.013 596.213 209.36C609.053 214.613 620.347 220.147 626.813 225.347C629.253 227.293 630.88 228.6 631.96 229.467C631.973 229.467 631.987 229.48 631.987 229.48C632.907 230.213 633.427 230.613 633.693 230.813C633.84 230.92 633.907 230.987 633.947 231.013C633.947 230.987 633.933 230.987 633.907 230.96C643.12 238.293 645.213 245.253 645.96 250.08C647.893 262.747 641.933 279.813 628.24 301.027Z" fill="white"/>
<path d="M539.36 159.187C539.36 159.187 539.04 159.467 538.44 159.973C533.32 164.213 507.773 183.813 487.44 170.413C464.747 155.427 475.507 125.947 475.507 125.947L496.907 128.88C496.907 128.88 492.72 148.187 502.813 153.267C512.92 158.347 524.947 150.76 524.947 150.76L532.653 155.267L539.36 159.187Z" fill="white"/>
<path d="M593.533 153.187V153.2C592.667 153.44 591.787 153.64 590.867 153.827C590.2 153.96 589.507 154.08 588.787 154.173C586.653 154.453 584.413 154.613 582.08 154.613C581.427 154.613 580.787 154.6 580.133 154.573C579.667 154.56 579.187 154.547 578.72 154.52C578.373 154.493 578 154.467 577.64 154.44C577.147 154.4 576.64 154.373 576.133 154.32C575.72 154.28 575.32 154.24 574.907 154.187C574.533 154.147 574.16 154.107 573.8 154.053C573.627 154.027 573.467 154.013 573.307 153.987C572.853 153.933 572.4 153.867 571.947 153.8C571.48 153.733 570.987 153.64 570.493 153.56C570.147 153.493 569.8 153.44 569.44 153.387C566.013 152.747 562.48 151.867 558.92 150.787C557.453 150.32 555.96 149.84 554.48 149.307C551.52 148.253 548.52 147.04 545.587 145.68C544.107 145.013 542.627 144.307 541.173 143.56C540.44 143.187 539.72 142.8 538.987 142.413C538.267 142.027 537.56 141.627 536.84 141.213C536.12 140.813 535.413 140.4 534.693 139.987C533.707 139.4 532.733 138.787 531.773 138.173C531 137.68 530.213 137.173 529.453 136.653C528.733 136.173 528 135.653 527.28 135.147C527.107 135.013 526.907 134.893 526.747 134.787C525.973 134.2 525.187 133.627 524.427 133.053C523.107 132.053 521.84 131.013 520.573 129.96C519.64 129.16 518.733 128.347 517.827 127.507C517.373 127.093 516.92 126.68 516.48 126.267C516.027 125.827 515.6 125.413 515.173 124.987C514.387 124.147 513.587 123.307 512.8 122.493C512.4 122.08 511.987 121.68 511.587 121.28C511.173 120.88 510.773 120.48 510.36 120.08L510.307 120.027C509.933 119.68 509.573 119.32 509.2 118.973C508.08 117.933 506.947 116.907 505.813 115.907H505.8C504.787 115.013 503.773 114.147 502.72 113.28C502.213 112.853 501.693 112.427 501.173 112C500.64 111.587 500.12 111.173 499.6 110.76C499.067 110.347 498.533 109.947 498.013 109.547C497.187 108.907 496.347 108.293 495.507 107.667C494.88 107.213 494.24 106.76 493.6 106.32C493.12 105.987 492.64 105.64 492.173 105.32C490.733 104.333 489.293 103.373 487.84 102.427C486.507 101.587 485.187 100.76 483.853 99.96C481.853 98.76 479.853 97.6133 477.853 96.4933C476.52 95.76 475.187 95.0534 473.853 94.3467H473.84C472.507 93.6534 471.173 92.9867 469.853 92.32C469.133 91.9734 468.427 91.6266 467.72 91.2933C462.08 88.6 456.507 86.2668 451.173 84.2401C450.507 83.9734 449.84 83.7333 449.187 83.4933C448.52 83.2534 447.867 83.0133 447.213 82.7733C446.573 82.5466 445.92 82.3199 445.28 82.0933H445.267C444.627 81.8666 444 81.6533 443.36 81.4266C441.467 80.7866 439.6 80.1866 437.8 79.6266C434.387 78.5733 431.187 77.64 428.2 76.8534C427.56 76.6667 426.92 76.5067 426.28 76.3467C425.667 76.1867 425.053 76.0267 424.453 75.8667C423.547 75.6534 422.667 75.4401 421.827 75.2401C421.813 75.2268 421.787 75.2267 421.773 75.2267C421.227 75.0934 420.707 74.9734 420.187 74.8534C420 74.8134 419.8 74.7601 419.613 74.7201C418.28 74.4268 417.04 74.1466 415.907 73.92H415.893C415.56 73.8399 415.227 73.7734 414.907 73.7201C414.587 73.6534 414.28 73.5734 413.973 73.5201C413.667 73.4667 413.373 73.4134 413.093 73.36C412.8 73.3067 412.533 73.2534 412.267 73.2001C412.253 73.2001 412.24 73.1867 412.227 73.1867C412.013 73.1467 411.813 73.1068 411.627 73.0801C410.853 72.9334 410.16 72.8134 409.573 72.7201C409.133 72.6401 408.76 72.5867 408.44 72.5201C408.347 72.5201 408.28 72.4933 408.213 72.4933C408.133 72.48 408.067 72.4667 408 72.4667C407.68 72.4133 407.44 72.3867 407.307 72.36C407.293 72.36 407.28 72.3467 407.253 72.3467H407.227C407.253 72.3734 407.28 72.3868 407.32 72.4135C407.333 72.4135 407.36 72.4266 407.387 72.44C407.413 72.4666 407.44 72.4667 407.48 72.4933C409.4 73.5467 421.067 80 433.64 88.3467C433.64 88.3467 433.64 88.36 433.667 88.36C433.68 88.3734 433.693 88.3867 433.707 88.4001C445.093 95.9601 457.2 105.08 463.4 113.133V113.16C463.347 113.213 462.96 113.507 462.387 114.027C462.253 114.133 462.107 114.267 461.96 114.4C461.8 114.533 461.653 114.68 461.48 114.84C461.227 115.08 460.947 115.333 460.667 115.627C460.56 115.72 460.453 115.827 460.347 115.933L459.987 116.293C459.88 116.413 459.76 116.533 459.613 116.667V116.68C459.507 116.8 459.373 116.933 459.24 117.067C459.147 117.16 459.04 117.28 458.947 117.387C458.653 117.693 458.373 118.04 458.053 118.387C457.92 118.533 457.787 118.693 457.64 118.853C457.493 119.027 457.36 119.187 457.227 119.347C457.08 119.52 456.947 119.693 456.8 119.867V119.88C456.627 120.08 456.453 120.307 456.267 120.533V120.547C456.093 120.773 455.907 121 455.733 121.24C455.373 121.707 455.027 122.2 454.667 122.707C454.387 123.107 454.093 123.533 453.827 123.96C453.453 124.533 453.093 125.12 452.733 125.733C451.48 127.867 450.36 130.227 449.507 132.787C447.68 138.267 447.12 144.627 449.36 151.52C449.533 152.08 449.733 152.627 449.947 153.173C450.013 153.347 450.08 153.533 450.173 153.733C450.173 153.733 447.187 154.147 442.373 155.387C442.093 155.467 441.8 155.547 441.507 155.613C440.027 156.027 438.4 156.493 436.653 157.067C435.96 157.28 435.253 157.52 434.507 157.773C433.787 158.027 433.027 158.293 432.253 158.587C431.933 158.693 431.6 158.827 431.267 158.96C431.187 158.987 431.12 159 431.053 159.04C430.653 159.187 430.267 159.347 429.853 159.493C429.08 159.813 428.293 160.133 427.48 160.48C427.067 160.653 426.653 160.827 426.24 161C426.2 161.027 426.16 161.053 426.107 161.067C425.587 161.293 425.08 161.52 424.573 161.76C424.373 161.867 424.16 161.947 423.96 162.04C423.813 162.107 423.667 162.173 423.533 162.24C422.467 162.747 421.373 163.293 420.267 163.853C420.027 163.987 419.773 164.107 419.52 164.24C419.467 164.28 419.413 164.307 419.347 164.333C419.333 164.347 419.333 164.347 419.32 164.347C418.76 164.653 418.2 164.947 417.64 165.267C416.773 165.747 415.907 166.24 415.027 166.76C415 166.773 414.987 166.787 414.96 166.8C414.08 167.32 413.2 167.867 412.307 168.44C411.947 168.667 411.587 168.893 411.213 169.133C410.48 169.627 409.76 170.12 409.027 170.627C408.36 171.093 407.693 171.573 407.04 172.067C406.973 172.107 406.907 172.16 406.84 172.213C406.72 172.293 406.6 172.387 406.493 172.48C405.507 173.213 404.533 173.973 403.56 174.773C402.853 175.347 402.16 175.947 401.467 176.547C401.2 176.787 400.947 177.013 400.68 177.24C400.24 177.64 399.8 178.053 399.36 178.467C398.647 179.133 397.943 179.813 397.237 180.52C397.001 180.76 396.763 180.987 396.535 181.227C396.224 181.56 395.923 181.867 395.612 182.2C395.209 182.64 394.807 183.08 394.405 183.52C393.939 184.04 393.491 184.56 393.033 185.093C392.367 185.88 391.699 186.68 391.041 187.52C390.832 187.787 390.612 188.08 390.392 188.36C390.072 188.787 389.752 189.213 389.443 189.653C389.121 190.08 388.811 190.52 388.501 190.96C388.089 191.547 387.677 192.147 387.276 192.76C387.075 193.067 386.873 193.373 386.672 193.68C386.48 193.987 386.28 194.293 386.087 194.627C385.896 194.933 385.703 195.24 385.512 195.56C385.32 195.88 385.128 196.2 384.945 196.533C384.761 196.853 384.571 197.173 384.388 197.507C384.187 197.853 383.985 198.213 383.793 198.573C383.511 199.107 383.227 199.653 382.943 200.2C381.489 203.04 380.164 206.053 379.004 209.24C378.729 210 378.465 210.773 378.2 211.547C376.143 217.733 374.681 224.56 373.959 232.093C373.959 232.093 385.019 217.347 402.147 207.16C408.68 203.267 416.093 200.053 424.133 198.547C430.48 197.387 437.213 197.28 444.173 198.813C444.28 198.827 444.373 198.853 444.48 198.867C444.987 198.987 445.493 199.107 446 199.24L446.853 199.467C447.387 199.613 447.933 199.76 448.453 199.947C449.093 200.147 449.72 200.347 450.347 200.56V200.573C450.587 200.653 450.827 200.747 451.067 200.827C451.773 201.093 452.507 201.36 453.213 201.68H453.227C455.373 202.573 457.547 203.627 459.733 204.893C460.467 205.32 461.2 205.747 461.933 206.213C464.427 207.6 466.973 209.267 469.093 210.72C471.187 212.187 472.853 213.44 473.587 214C472.36 213.76 468.427 213.493 456.56 213.587C436.8 213.747 419.893 219.533 419.36 219.707H419.347L419.28 219.733L419.213 219.76L418.667 219.973C411.253 222.76 403.973 226.427 397.247 230.747L392.467 233.973C381.7 242.173 362.753 262.627 353.979 282.347C348.403 295.733 345.432 310.12 345.304 324.813C345.285 325.253 345.285 325.627 345.285 325.907C345.285 326.16 345.285 326.453 345.295 326.8V327.707C345.295 327.973 345.304 328.293 345.323 328.68C345.332 329.333 345.349 330.053 345.396 330.813L345.404 330.973C345.423 331.507 345.451 332.093 345.496 332.747C345.541 333.733 345.615 334.64 345.679 335.44C345.679 335.44 345.688 335.52 345.707 335.693C345.707 335.733 345.716 335.787 345.716 335.84C345.725 335.893 345.725 335.96 345.733 336.013C345.752 336.16 345.761 336.333 345.78 336.52C345.797 336.653 345.807 336.787 345.816 336.933C345.825 336.987 345.835 337.053 345.844 337.12C345.852 337.267 345.871 337.4 345.88 337.547C345.916 337.813 345.953 338.107 345.989 338.427C346.008 338.64 346.035 338.867 346.063 339.08C346.117 339.533 346.172 340.013 346.245 340.533C346.255 340.613 346.264 340.68 346.273 340.747V340.787C346.401 341.72 346.548 342.747 346.712 343.853C346.848 344.773 347.004 345.733 347.187 346.747C347.928 351.08 349.005 356.213 350.532 361.373C351.665 365.187 352.955 368.533 354.207 371.373C350.999 387.387 349.747 409.453 357.744 433.28C358.147 434.493 358.576 435.707 359.024 436.92C359.361 437.827 359.719 438.72 360.084 439.627C360.203 439.947 360.331 440.253 360.459 440.547C360.961 441.773 361.483 443 362.031 444.213C362.377 444.987 362.744 445.76 363.1 446.52C363.465 447.28 363.849 448.053 364.233 448.813V448.827C364.544 449.44 364.864 450.053 365.184 450.667C365.513 451.28 365.841 451.907 366.18 452.52C366.345 452.827 366.519 453.147 366.692 453.453C367.213 454.373 367.744 455.307 368.292 456.227C368.931 457.32 369.599 458.4 370.293 459.48C370.979 460.573 371.692 461.653 372.423 462.733C379.991 473.907 390.081 485.08 403.373 495.88C405 497.2 406.667 498.507 408.387 499.813C409.24 500.453 410.107 501.107 410.987 501.76C412.107 502.573 413.213 503.373 414.373 504.173C417.787 506.587 421.4 508.973 425.173 511.32L425.187 511.347C396.425 504.467 372.871 494.693 353.604 483.107H353.595C353.595 483.107 353.421 483 353.092 482.8C353.028 482.76 352.963 482.72 352.9 482.693L352.717 482.573C349.747 480.76 346.876 478.92 344.116 477.027C343.805 476.8 343.485 476.587 343.175 476.373C342.828 476.133 342.48 475.893 342.141 475.653C341.895 475.48 341.657 475.307 341.419 475.133C340.935 474.8 340.451 474.453 339.984 474.107C339.033 473.427 338.092 472.733 337.16 472.027C336.703 471.68 336.255 471.333 335.799 470.987C335.46 470.733 335.123 470.467 334.784 470.2C334.317 469.853 333.86 469.48 333.404 469.12C333.295 469.04 333.184 468.947 333.075 468.853C332.627 468.507 332.188 468.147 331.749 467.787C331.576 467.64 331.403 467.507 331.228 467.36C330.964 467.147 330.699 466.933 330.443 466.707C330.388 466.667 330.332 466.627 330.277 466.573L330.113 466.44C329.857 466.24 329.611 466.027 329.364 465.813C329.153 465.64 328.943 465.467 328.733 465.293C328.66 465.213 328.577 465.147 328.505 465.08C328.267 464.88 328.02 464.667 327.783 464.453C327.747 464.427 327.709 464.4 327.683 464.36C327.472 464.187 327.271 464.013 327.06 463.84C326.621 463.453 326.192 463.08 325.763 462.68C325.744 462.68 325.736 462.653 325.716 462.64C325.699 462.627 325.68 462.613 325.671 462.587C325.36 462.333 325.059 462.067 324.757 461.773C324.465 461.52 324.172 461.253 323.888 460.987C323.304 460.453 322.737 459.92 322.171 459.387C321.741 458.987 321.312 458.573 320.891 458.16C320.644 457.933 320.407 457.693 320.16 457.467L319.447 456.747C318.999 456.32 318.56 455.867 318.121 455.427C318.031 455.347 317.948 455.253 317.865 455.173C317.455 454.76 317.043 454.333 316.641 453.92C316.485 453.76 316.339 453.6 316.193 453.453C316 453.253 315.8 453.04 315.608 452.84L315.279 452.48C315.087 452.28 314.895 452.08 314.712 451.88C314.667 451.84 314.629 451.8 314.593 451.76C314.375 451.52 314.155 451.28 313.935 451.04C313.488 450.56 313.048 450.08 312.619 449.587C312.355 449.307 312.099 449.013 311.851 448.733C311.668 448.547 311.504 448.347 311.331 448.147C311.157 447.947 310.975 447.733 310.809 447.533C310.727 447.453 310.663 447.373 310.591 447.293C310.307 446.973 310.023 446.64 309.749 446.307C309.704 446.267 309.667 446.213 309.621 446.16C309.384 445.88 309.147 445.613 308.917 445.333C308.827 445.227 308.735 445.12 308.652 445.013C308.569 444.92 308.479 444.813 308.396 444.707C308.315 444.613 308.232 444.507 308.159 444.413C308.085 444.333 308.012 444.253 307.948 444.16C307.876 444.08 307.803 443.987 307.737 443.907C307.647 443.813 307.573 443.693 307.492 443.6C307.217 443.28 306.952 442.947 306.696 442.613C306.596 442.493 306.504 442.387 306.413 442.267C306.312 442.147 306.221 442.027 306.12 441.907C305.92 441.653 305.719 441.4 305.517 441.133C305.472 441.08 305.427 441.013 305.389 440.96C305.343 440.907 305.297 440.853 305.252 440.787C305.143 440.653 305.033 440.52 304.923 440.387C304.859 440.293 304.785 440.2 304.723 440.107C304.676 440.053 304.649 440.013 304.612 439.973C304.448 439.747 304.275 439.533 304.109 439.307C303.981 439.16 303.872 439.013 303.763 438.853C303.699 438.76 303.625 438.667 303.561 438.587C303.396 438.373 303.241 438.173 303.095 437.96C303.021 437.867 302.949 437.76 302.867 437.653C302.757 437.52 302.657 437.387 302.565 437.24C302.528 437.2 302.492 437.16 302.464 437.12C302.428 437.067 302.409 437.04 302.383 437C302.2 436.76 302.025 436.52 301.843 436.267C301.496 435.787 301.148 435.307 300.82 434.827C300.7 434.68 300.6 434.52 300.491 434.36C300.453 434.307 300.417 434.253 300.381 434.2C300.143 433.867 299.896 433.52 299.659 433.173C299.64 433.147 299.621 433.12 299.604 433.093C299.549 433.013 299.495 432.947 299.439 432.853C299.348 432.72 299.256 432.587 299.175 432.453C299.019 432.24 298.872 432.027 298.735 431.813C298.589 431.613 298.452 431.4 298.315 431.2C298.105 430.893 297.904 430.573 297.693 430.267C297.657 430.2 297.611 430.133 297.575 430.067C297.492 429.947 297.409 429.827 297.337 429.72C297.136 429.413 296.935 429.107 296.743 428.787C296.615 428.613 296.496 428.413 296.377 428.227C296.34 428.173 296.313 428.12 296.277 428.067C296.093 427.773 295.901 427.48 295.72 427.187C295.628 427.04 295.527 426.88 295.445 426.733C295.252 426.427 295.071 426.147 294.888 425.853C294.86 425.8 294.824 425.747 294.804 425.707C294.704 425.547 294.613 425.387 294.521 425.24C294.311 424.893 294.101 424.547 293.9 424.2C293.663 423.813 293.444 423.44 293.224 423.053C293.087 422.84 292.968 422.627 292.84 422.413C292.803 422.36 292.776 422.293 292.739 422.24C292.539 421.893 292.337 421.547 292.145 421.2C292.127 421.173 292.1 421.133 292.091 421.107C291.88 420.733 291.671 420.36 291.469 419.987C291.103 419.347 290.747 418.693 290.408 418.053C290.345 417.947 290.289 417.84 290.227 417.733C290.024 417.36 289.833 416.987 289.632 416.613C289.568 416.493 289.504 416.36 289.431 416.227C289.229 415.853 289.028 415.467 288.837 415.093C288.817 415.053 288.8 415.013 288.781 414.987C288.736 414.893 288.691 414.813 288.653 414.72C288.508 414.453 288.371 414.173 288.233 413.907C288.151 413.733 288.069 413.573 287.987 413.413C287.603 412.653 287.228 411.893 286.871 411.147C286.735 410.867 286.607 410.587 286.469 410.293C286.377 410.12 286.304 409.947 286.223 409.773C286.067 409.453 285.92 409.133 285.775 408.813C284.139 405.307 282.667 401.787 281.332 398.293C281.187 397.933 281.049 397.56 280.903 397.187C280.82 396.96 280.729 396.733 280.647 396.507C280.372 395.773 280.099 395.027 279.843 394.28C279.596 393.6 279.359 392.933 279.131 392.253C278.956 391.76 278.783 391.253 278.617 390.747C263.189 344.44 270.712 303.547 270.812 302.987C270.793 303.027 270.776 303.053 270.748 303.093C270.693 303.187 270.62 303.307 270.529 303.44C270.501 303.52 270.456 303.587 270.401 303.667C270.356 303.76 270.291 303.84 270.227 303.947C270.145 304.107 270.044 304.267 269.935 304.44C269.871 304.547 269.807 304.667 269.733 304.773C269.697 304.853 269.66 304.92 269.615 304.987C269.46 305.267 269.285 305.547 269.103 305.853C269.103 305.853 269.103 305.867 269.093 305.867C268.939 306.133 268.773 306.413 268.591 306.72C268.536 306.813 268.481 306.92 268.417 307.027C268.344 307.16 268.263 307.307 268.171 307.453C267.951 307.853 267.713 308.253 267.467 308.693C267.339 308.907 267.22 309.133 267.083 309.36C267.083 309.373 267.083 309.387 267.073 309.387C266.819 309.853 266.544 310.32 266.269 310.827C265.995 311.32 265.703 311.84 265.411 312.387C265.209 312.747 265.008 313.12 264.808 313.493C264.496 314.067 264.185 314.653 263.856 315.267C263.199 316.48 262.512 317.787 261.809 319.16C261.627 319.507 261.452 319.853 261.269 320.213C260.721 321.28 260.164 322.387 259.588 323.52C258.445 325.813 257.257 328.28 256.032 330.88C256.032 330.893 256.032 330.893 256.023 330.907C255.731 331.547 255.429 332.187 255.128 332.84C254.963 333.2 254.789 333.587 254.607 333.96C254.168 334.92 253.729 335.893 253.281 336.893C253.125 337.24 252.971 337.6 252.816 337.96C252.039 339.707 251.261 341.507 250.475 343.36V343.373C250.384 343.573 250.301 343.773 250.22 343.987C250.147 344.147 250.073 344.32 250 344.493C249.927 344.68 249.845 344.853 249.772 345.04C249.689 345.227 249.616 345.427 249.533 345.613C249.524 345.627 249.516 345.667 249.497 345.693C249.315 346.16 249.123 346.627 248.931 347.093C248.693 347.667 248.456 348.253 248.219 348.853C247.916 349.6 247.605 350.373 247.304 351.133C247.157 351.52 247.003 351.907 246.856 352.293C246.481 353.253 246.107 354.24 245.732 355.227C245.649 355.427 245.567 355.653 245.485 355.867C245.265 356.453 245.037 357.053 244.817 357.653C244.589 358.253 244.369 358.867 244.151 359.48C243.283 361.88 242.423 364.32 241.591 366.813C240.011 371.52 238.512 376.387 237.112 381.4C236.839 382.4 236.564 383.4 236.291 384.4V384.427C236.025 385.427 235.76 386.44 235.495 387.467V387.48C234.973 389.52 234.48 391.587 233.996 393.653V393.68C233.529 395.76 233.073 397.853 232.643 399.973V399.987C232.533 400.507 232.432 401.04 232.323 401.573C232.012 403.16 231.72 404.773 231.436 406.373C228.905 420.947 227.68 436.173 228.612 451.427C228.612 451.507 228.621 451.6 228.621 451.68C228.667 452.32 228.712 452.973 228.759 453.627C228.905 455.573 229.079 457.52 229.299 459.467C229.325 459.747 229.361 460.027 229.399 460.32C229.472 460.907 229.544 461.493 229.617 462.093C229.847 463.853 230.101 465.613 230.395 467.373C230.596 468.547 230.807 469.72 231.025 470.88C231.253 472.053 231.491 473.227 231.748 474.387C232.003 475.613 232.287 476.8 232.588 478.013C232.661 478.32 232.735 478.627 232.825 478.933C233.091 480.027 233.383 481.093 233.685 482.173C234.489 485.067 235.395 487.933 236.417 490.773C236.893 492.12 237.396 493.467 237.925 494.813C238.328 495.827 238.74 496.813 239.16 497.827C239.48 498.573 239.809 499.32 240.147 500.08C240.485 500.827 240.824 501.56 241.171 502.32C241.519 503.04 241.884 503.8 242.249 504.533C242.615 505.28 242.989 506.013 243.373 506.747C240.367 506.12 237.177 505.28 233.896 504.187C230.613 503.093 227.251 501.747 223.896 500.08C217.443 496.88 211.027 492.493 205.341 486.52C184.968 465.12 172.072 432.28 169.092 424.187C168.653 423 168.433 422.36 168.433 422.36C168.433 422.36 158.973 397.12 150.236 354.613C150.127 354.04 150.008 353.467 149.889 352.893L149.879 352.827V352.813C149.989 351.68 150.108 350.547 150.245 349.44C150.272 349.24 150.291 349.027 150.317 348.813C150.428 347.893 150.537 346.987 150.656 346.08C150.739 345.493 150.821 344.907 150.895 344.32C150.949 343.92 151.004 343.547 151.068 343.147C151.405 340.813 151.78 338.48 152.192 336.187C152.247 335.867 152.301 335.547 152.365 335.227C152.951 332.053 153.609 328.92 154.321 325.84C155.519 320.72 156.899 315.693 158.452 310.813C158.571 310.413 158.7 310.027 158.828 309.627C159.549 307.387 160.317 305.16 161.112 302.973C161.249 302.573 161.396 302.187 161.551 301.787C161.688 301.387 161.835 300.987 161.981 300.6L161.991 300.587C162.283 299.8 162.593 299.013 162.895 298.227C163.205 297.453 163.516 296.667 163.827 295.893C164.147 295.12 164.457 294.347 164.787 293.587C165.107 292.8 165.427 292.04 165.756 291.267C166.459 289.653 167.181 288.053 167.923 286.467C168.168 285.947 168.416 285.413 168.671 284.88C169.173 283.827 169.676 282.787 170.188 281.747C170.453 281.227 170.719 280.707 170.975 280.187C171.231 279.667 171.496 279.147 171.761 278.64C172.473 277.28 173.196 275.92 173.927 274.573C174.484 273.56 175.033 272.56 175.6 271.547C176.449 270.053 177.317 268.573 178.204 267.107C178.496 266.613 178.789 266.12 179.083 265.64C179.375 265.16 179.676 264.667 179.977 264.187C180.279 263.707 180.581 263.213 180.883 262.747C181.485 261.787 182.097 260.827 182.729 259.88L183.661 258.467C183.972 258 184.292 257.52 184.612 257.053C185.444 255.813 186.293 254.573 187.171 253.333C188.029 252.107 188.908 250.907 189.795 249.693C190.461 248.8 191.129 247.893 191.805 247C192.481 246.107 193.167 245.213 193.861 244.347C194.885 243.027 195.927 241.72 196.988 240.427C197.335 239.987 197.691 239.56 198.039 239.133C198.751 238.28 199.455 237.427 200.177 236.587C200.891 235.747 201.621 234.907 202.344 234.067C203.696 232.52 205.067 230.987 206.456 229.48C207.845 227.973 209.244 226.48 210.661 225.013C211.795 223.827 212.937 222.667 214.089 221.52C219.828 215.773 225.788 210.333 231.884 205.2C233.091 204.173 234.316 203.16 235.54 202.147H235.549C236.775 201.147 238.008 200.16 239.243 199.187C240.485 198.2 241.728 197.24 242.971 196.28C244.215 195.32 245.467 194.387 246.709 193.453C248.703 191.973 250.695 190.52 252.696 189.093C253.729 188.36 254.772 187.627 255.813 186.907C272.357 175.44 289.175 165.92 304.951 158.133C306.559 157.333 308.159 156.56 309.749 155.8C350.916 136.107 383.793 128.387 383.793 128.387C382.084 127.347 380.393 126.347 378.711 125.387C377.587 124.747 376.472 124.12 375.365 123.52C374.817 123.213 374.26 122.92 373.703 122.627C372.605 122.053 371.519 121.48 370.431 120.933C369.881 120.653 369.343 120.387 368.804 120.12C367.724 119.587 366.664 119.067 365.595 118.56C364.004 117.813 362.424 117.093 360.871 116.413C359.828 115.96 358.804 115.533 357.78 115.107C357.277 114.893 356.757 114.68 356.255 114.48C355.248 114.067 354.243 113.68 353.256 113.293C352.753 113.107 352.26 112.92 351.767 112.733C351.209 112.533 350.66 112.333 350.112 112.133C349.033 111.747 347.964 111.387 346.912 111.027C345.861 110.667 344.82 110.333 343.796 110C343.111 109.787 342.435 109.587 341.757 109.387C340.861 109.107 339.967 108.853 339.097 108.6C338.649 108.48 338.201 108.36 337.764 108.24C336.887 108 336.017 107.773 335.159 107.547C333.869 107.227 332.608 106.92 331.375 106.653C329.739 106.267 328.139 105.947 326.595 105.64C325.433 105.427 324.3 105.227 323.203 105.04C322.463 104.92 321.751 104.813 321.047 104.707C313.972 103.653 308.26 103.387 304.247 103.387C303.031 103.387 301.98 103.4 301.084 103.44C300.884 103.453 300.691 103.453 300.508 103.467C300.417 103.48 300.325 103.48 300.243 103.48C300.069 103.48 299.905 103.493 299.74 103.507C299.431 103.533 299.147 103.547 298.9 103.56C298.772 103.573 298.653 103.587 298.553 103.6C298.497 103.6 298.443 103.6 298.397 103.6C298.296 103.627 298.205 103.627 298.132 103.627C297.767 103.667 297.583 103.693 297.583 103.693C300.527 101.16 303.405 98.7199 306.139 96.4266C306.824 95.8666 307.492 95.2934 308.159 94.7468H308.168C308.415 94.5334 308.661 94.3333 308.908 94.1333C309.392 93.7333 309.877 93.3333 310.361 92.9333C310.591 92.7333 310.836 92.5334 311.075 92.3467C312.025 91.56 312.948 90.8134 313.835 90.0801C314.273 89.7334 314.703 89.3734 315.133 89.0267C316.193 88.1601 317.208 87.3334 318.167 86.5734C318.541 86.2668 318.917 85.9734 319.273 85.68C319.456 85.5334 319.629 85.3866 319.812 85.2533C320.864 84.4133 321.823 83.64 322.673 82.96C322.683 82.96 322.683 82.96 322.683 82.96C322.783 82.88 322.875 82.8001 322.965 82.7334C323.249 82.5201 323.505 82.32 323.752 82.12C324.089 81.8533 324.401 81.6001 324.684 81.3734C325.461 80.7601 326.064 80.28 326.476 79.9733C326.621 79.8533 326.741 79.76 326.841 79.6934C326.86 79.6801 326.868 79.6667 326.887 79.6667C326.905 79.6534 326.915 79.64 326.923 79.6266C326.941 79.6133 326.951 79.6133 326.96 79.6C326.969 79.5866 326.979 79.5734 326.987 79.5734C327.033 79.5334 327.069 79.5067 327.079 79.5067C326.612 79.1467 326.147 78.8133 325.689 78.4533C325.443 78.2933 325.205 78.12 324.976 77.96C324.575 77.68 324.181 77.4 323.779 77.12C323.451 76.9066 323.131 76.68 322.801 76.4667C321.841 75.8267 320.855 75.2001 319.876 74.5734C318.771 73.8801 317.637 73.2134 316.513 72.5334L315.38 71.8801C314.932 71.6134 314.465 71.3466 314.008 71.0933C313.551 70.84 313.085 70.5867 312.619 70.3334C311.696 69.8267 310.764 69.3334 309.823 68.8534C309.201 68.5201 308.569 68.2001 307.94 67.9068C306.687 67.2668 305.416 66.6668 304.147 66.0801C303.507 65.7868 302.867 65.4934 302.227 65.2134C299.676 64.0801 297.099 63.0267 294.512 62.0267C260.311 48.8667 225.249 47.7067 224.408 47.6934C229.224 44.8267 234.38 42.2 239.8 39.8267C240.577 39.48 241.353 39.1467 242.14 38.8134C242.925 38.4933 243.721 38.16 244.516 37.84C244.917 37.68 245.311 37.5201 245.713 37.36C247.323 36.7201 248.94 36.1201 250.585 35.5201C251.819 35.0667 253.063 34.6267 254.305 34.2134C255.147 33.9201 255.987 33.6401 256.828 33.3734C258.089 32.9467 259.36 32.5467 260.639 32.16C261.499 31.8933 262.357 31.6401 263.217 31.3734C264.076 31.1201 264.944 30.88 265.813 30.6266C267.768 30.08 269.733 29.5467 271.717 29.0267C272.384 28.8534 273.051 28.6934 273.709 28.5201C275.044 28.2 276.379 27.8801 277.721 27.5601C279.733 27.0801 281.753 26.6401 283.792 26.2001C284.468 26.0534 285.144 25.9066 285.829 25.7599C286.789 25.5733 287.749 25.3734 288.717 25.1867C289.12 25.1067 289.513 25.0266 289.915 24.9467C290.481 24.84 291.039 24.7466 291.607 24.6266C292.081 24.5467 292.548 24.4534 293.032 24.3734C293.489 24.2801 293.955 24.2 294.421 24.1066C295.481 23.92 296.541 23.7334 297.603 23.5468C297.857 23.5067 298.113 23.4668 298.369 23.4135C299.064 23.3068 299.749 23.1868 300.444 23.0801C300.645 23.0534 300.837 23.0133 301.039 22.9733C302.957 22.6667 304.887 22.3733 306.816 22.0933C307.711 21.96 308.607 21.8267 309.503 21.7067C310.16 21.6134 310.819 21.52 311.477 21.4266C312.336 21.3199 313.195 21.2 314.045 21.0933C315.645 20.8799 317.244 20.68 318.835 20.5067H318.844C345.861 21 392.303 23.36 428.227 33.12C461.947 42.6266 492.667 54.3334 519.56 67.9068L519.573 67.9333L519.613 67.9467C520.467 68.3733 521.32 68.8267 522.227 69.2933C522.84 69.6 523.427 69.9201 524.027 70.2267C533.587 75.6934 564.027 95.5468 589.213 138.733C590.987 144.187 592.413 149.04 593.533 153.187Z" fill="white"/>
</svg>
